<svg version="1.1" xmlns="http://www.w3.org/2000/svg" viewBox="0 0 714.1799774169922 1051" width="1428.3599548339844" height="2102" filter="invert(93%) hue-rotate(180deg)">
  <!-- svg-source:excalidraw -->
  
  <defs>
    <style class="style-fonts">
      @font-face {
        font-family: "Virgil";
        src: url("https://excalidraw.com/Virgil.woff2");
      }
      @font-face {
        font-family: "Cascadia";
        src: url("https://excalidraw.com/Cascadia.woff2");
      }
      @font-face {
        font-family: "Assistant";
        src: url("https://excalidraw.com/Assistant-Regular.woff2");
      }
    </style>
    
  </defs>
  <rect x="0" y="0" width="714.1799774169922" height="1051" fill="#ffffff"></rect><g stroke-linecap="round" transform="translate(48 297) rotate(0 310 52.5)"><path d="M26.25 0 C175.04 -2.14, 324.6 -2.31, 593.75 0 M26.25 0 C156.1 -2.28, 286.45 -1.89, 593.75 0 M593.75 0 C612.14 -1.49, 621.3 8.76, 620 26.25 M593.75 0 C613.09 0.75, 620.97 7.63, 620 26.25 M620 26.25 C620.56 37.25, 618.43 47.2, 620 78.75 M620 26.25 C619.14 36.59, 619.38 48.19, 620 78.75 M620 78.75 C621.13 97.7, 611.82 105.47, 593.75 105 M620 78.75 C618.06 94.11, 608.98 105.92, 593.75 105 M593.75 105 C417.16 103.08, 241.91 103.02, 26.25 105 M593.75 105 C390.49 105.71, 186.76 105.83, 26.25 105 M26.25 105 C7.35 106.91, -1.33 98.2, 0 78.75 M26.25 105 C9.62 106.89, 0.04 95.27, 0 78.75 M0 78.75 C1.58 65.3, -0.16 49.17, 0 26.25 M0 78.75 C0.77 58.88, 1.07 38.28, 0 26.25 M0 26.25 C-1.79 7.8, 6.95 1.52, 26.25 0 M0 26.25 C-0.58 9.71, 10.77 1.19, 26.25 0" stroke="#1e1e1e" stroke-width="2" fill="none"></path></g><g stroke-linecap="round"><g transform="translate(191 296) rotate(0 -0.3310593811557965 55.65102387837135)"><path d="M0.66 0.77 C0.44 19.48, -0.26 93.07, -0.22 111.17 M-0.46 0.13 C-0.94 18.62, -1.46 91.3, -1.28 109.66" stroke="#1e1e1e" stroke-width="2" fill="none"></path></g></g><mask></mask><g stroke-linecap="round"><g transform="translate(334 295) rotate(0 0.36808300337304445 54.376238760855045)"><path d="M-0.58 0.47 C-0.47 18.39, 0.75 89.6, 0.98 107.7 M1.32 -0.34 C1.33 17.75, 0.69 91.14, 0.55 109.09" stroke="#1e1e1e" stroke-width="2" fill="none"></path></g></g><mask></mask><g stroke-linecap="round"><g transform="translate(454 295) rotate(0 0.5361429339922097 54.20653986386023)"><path d="M0.94 0.04 C1.17 18.43, 1.1 91.24, 1.03 109.4 M-0.03 -0.99 C0.17 17.12, 0.62 88.93, 0.63 107.49" stroke="#1e1e1e" stroke-width="2" fill="none"></path></g></g><mask></mask><g stroke-linecap="round"><g transform="translate(561 295) rotate(0 0.11800882645883348 55.460907016303395)"><path d="M1.13 1.19 C0.96 19.27, -0.91 90.6, -0.98 108.75 M0.26 0.76 C0.46 19.01, 1.21 92.23, 1.22 110.16" stroke="#1e1e1e" stroke-width="2" fill="none"></path></g></g><mask></mask><g transform="translate(52 223) rotate(0 23.349990844726562 12.5)"><text x="0" y="17.52" font-family="Virgil, Segoe UI Emoji" font-size="20px" fill="#1e1e1e" text-anchor="start" style="white-space: pre;" direction="ltr" dominant-baseline="alphabetic">1000</text></g><g transform="translate(173 227) rotate(0 22.86998748779297 12.5)"><text x="0" y="17.52" font-family="Virgil, Segoe UI Emoji" font-size="20px" fill="#1e1e1e" text-anchor="start" style="white-space: pre;" direction="ltr" dominant-baseline="alphabetic">1004</text></g><g transform="translate(550 227) rotate(0 18.699989318847656 12.5)"><text x="0" y="17.52" font-family="Virgil, Segoe UI Emoji" font-size="20px" fill="#1e1e1e" text-anchor="start" style="white-space: pre;" direction="ltr" dominant-baseline="alphabetic">1016</text></g><g transform="translate(657 225) rotate(0 23.589988708496094 12.5)"><text x="0" y="17.52" font-family="Virgil, Segoe UI Emoji" font-size="20px" fill="#1e1e1e" text-anchor="start" style="white-space: pre;" direction="ltr" dominant-baseline="alphabetic">1020</text></g><g transform="translate(445 225) rotate(0 19.41999053955078 12.5)"><text x="0" y="17.52" font-family="Virgil, Segoe UI Emoji" font-size="20px" fill="#1e1e1e" text-anchor="start" style="white-space: pre;" direction="ltr" dominant-baseline="alphabetic">1012</text></g><g transform="translate(308 224) rotate(0 24.11998748779297 12.5)"><text x="0" y="17.52" font-family="Virgil, Segoe UI Emoji" font-size="20px" fill="#1e1e1e" text-anchor="start" style="white-space: pre;" direction="ltr" dominant-baseline="alphabetic">1008</text></g><g transform="translate(32 10) rotate(0 151.02984619140625 12.5)"><text x="0" y="17.52" font-family="Virgil, Segoe UI Emoji" font-size="20px" fill="#1e1e1e" text-anchor="start" style="white-space: pre;" direction="ltr" dominant-baseline="alphabetic">- suppose int occupies 4 bytes</text></g><g transform="translate(114 341) rotate(0 9.589996337890625 12.5)"><text x="0" y="17.52" font-family="Virgil, Segoe UI Emoji" font-size="20px" fill="#1e1e1e" text-anchor="start" style="white-space: pre;" direction="ltr" dominant-baseline="alphabetic">10</text></g><g transform="translate(257 342) rotate(0 13.999992370605469 12.5)"><text x="0" y="17.52" font-family="Virgil, Segoe UI Emoji" font-size="20px" fill="#1e1e1e" text-anchor="start" style="white-space: pre;" direction="ltr" dominant-baseline="alphabetic">20</text></g><g transform="translate(388 344) rotate(0 13.689994812011719 12.5)"><text x="0" y="17.52" font-family="Virgil, Segoe UI Emoji" font-size="20px" fill="#1e1e1e" text-anchor="start" style="white-space: pre;" direction="ltr" dominant-baseline="alphabetic">30</text></g><g transform="translate(491 352) rotate(0 13.279991149902344 12.5)"><text x="0" y="17.52" font-family="Virgil, Segoe UI Emoji" font-size="20px" fill="#1e1e1e" text-anchor="start" style="white-space: pre;" direction="ltr" dominant-baseline="alphabetic">40</text></g><g transform="translate(613 342) rotate(0 13.059989929199219 12.5)"><text x="0" y="17.52" font-family="Virgil, Segoe UI Emoji" font-size="20px" fill="#1e1e1e" text-anchor="start" style="white-space: pre;" direction="ltr" dominant-baseline="alphabetic">50</text></g><g transform="translate(56 79) rotate(0 171.31988525390625 25)"><text x="0" y="17.52" font-family="Virgil, Segoe UI Emoji" font-size="20px" fill="#1e1e1e" text-anchor="start" style="white-space: pre;" direction="ltr" dominant-baseline="alphabetic">int numbers[5] = {10,20,30,40,50}</text><text x="0" y="42.519999999999996" font-family="Virgil, Segoe UI Emoji" font-size="20px" fill="#1e1e1e" text-anchor="start" style="white-space: pre;" direction="ltr" dominant-baseline="alphabetic"></text></g><g transform="translate(37 138) rotate(0 54.23154541015623 21.5)"><text x="0" y="30.134399999999978" font-family="Virgil, Segoe UI Emoji" font-size="34.39999999999998px" fill="#1e1e1e" text-anchor="start" style="white-space: pre;" direction="ltr" dominant-baseline="alphabetic">number</text></g><g stroke-linecap="round"><g transform="translate(83.26965956513402 187) rotate(0 -0.23274291678742998 14.60098386665807)"><path d="M-0.09 -0.23 C-0.11 4.61, -0.58 24.52, -0.64 29.55 M-0.8 -0.82 C-0.61 4.31, 0.09 24.79, 0.34 30.02" stroke="#1e1e1e" stroke-width="2" fill="none"></path></g><g transform="translate(83.26965956513402 187) rotate(0 -0.23274291678742998 14.60098386665807)"><path d="M-5.35 16.14 C-4.45 18.25, -3.61 21.27, 0.34 30.02 M-5.35 16.14 C-3.91 20.59, -2.17 24.14, 0.34 30.02" stroke="#1e1e1e" stroke-width="2" fill="none"></path></g><g transform="translate(83.26965956513402 187) rotate(0 -0.23274291678742998 14.60098386665807)"><path d="M4.9 15.73 C3.74 17.92, 2.52 21.02, 0.34 30.02 M4.9 15.73 C3.31 20.33, 2.02 24, 0.34 30.02" stroke="#1e1e1e" stroke-width="2" fill="none"></path></g></g><mask></mask><g stroke-linecap="round"><g transform="translate(68.25983131810523 249) rotate(0 -4.319107110520804 23.37302280081437)"><path d="M-0.29 0.01 C-1.71 7.88, -7.35 38.85, -8.82 46.68 M0.56 -0.46 C-0.9 7.52, -7.51 39.21, -9.2 47.21" stroke="#1e1e1e" stroke-width="2" fill="none"></path></g><g transform="translate(68.25983131810523 249) rotate(0 -4.319107110520804 23.37302280081437)"><path d="M-12.6 23.53 C-11.86 29.62, -11.62 34.94, -9.2 47.21 M-12.6 23.53 C-11.18 30.28, -10.76 37.79, -9.2 47.21" stroke="#1e1e1e" stroke-width="2" fill="none"></path></g><g transform="translate(68.25983131810523 249) rotate(0 -4.319107110520804 23.37302280081437)"><path d="M3.41 26.88 C0.2 32.1, -3.54 36.59, -9.2 47.21 M3.41 26.88 C0.18 32.65, -4.07 39.18, -9.2 47.21" stroke="#1e1e1e" stroke-width="2" fill="none"></path></g></g><mask></mask><g stroke-linecap="round"><g transform="translate(186.08524698048438 260) rotate(0 0.1704868094357721 15.014097106049292)"><path d="M0.19 0.35 C0.37 5.26, 0.77 24.64, 0.71 29.53 M-0.37 0.05 C-0.2 5.01, 0.25 24.98, 0.46 29.98" stroke="#1e1e1e" stroke-width="2" fill="none"></path></g><g transform="translate(186.08524698048438 260) rotate(0 0.1704868094357721 15.014097106049292)"><path d="M-5.11 16.05 C-3.33 19.78, -3.15 21.84, 0.46 29.98 M-5.11 16.05 C-3.96 19.16, -2.32 22.41, 0.46 29.98" stroke="#1e1e1e" stroke-width="2" fill="none"></path></g><g transform="translate(186.08524698048438 260) rotate(0 0.1704868094357721 15.014097106049292)"><path d="M5.15 15.73 C4.53 19.55, 2.32 21.69, 0.46 29.98 M5.15 15.73 C3.89 18.95, 3.12 22.28, 0.46 29.98" stroke="#1e1e1e" stroke-width="2" fill="none"></path></g></g><mask></mask><g stroke-linecap="round"><g transform="translate(337.53999577877744 250) rotate(0 -3.196547407760818 21.02344987968098)"><path d="M-0.37 0.28 C-1.41 7.38, -5.52 35.16, -6.68 42.1 M0.44 -0.05 C-0.59 6.91, -5.48 34.09, -6.84 41.19" stroke="#1e1e1e" stroke-width="2" fill="none"></path></g><g transform="translate(337.53999577877744 250) rotate(0 -3.196547407760818 21.02344987968098)"><path d="M-10.38 20.18 C-9.16 25.88, -8.69 29.49, -6.84 41.19 M-10.38 20.18 C-9.71 26.73, -8.45 32.81, -6.84 41.19" stroke="#1e1e1e" stroke-width="2" fill="none"></path></g><g transform="translate(337.53999577877744 250) rotate(0 -3.196547407760818 21.02344987968098)"><path d="M3.96 22.82 C1.95 27.88, -0.8 30.89, -6.84 41.19 M3.96 22.82 C0.47 28.67, -2.42 33.99, -6.84 41.19" stroke="#1e1e1e" stroke-width="2" fill="none"></path></g></g><mask></mask><g stroke-linecap="round"><g transform="translate(456.8856985403553 252.00000000000006) rotate(0 -2.4020523138390217 19.728645412829906)"><path d="M0.43 -0.31 C-0.41 6.17, -3.98 32.44, -5.01 39.05 M-0.01 0.72 C-0.89 7.28, -4.47 33.49, -5.24 39.77" stroke="#1e1e1e" stroke-width="2" fill="none"></path></g><g transform="translate(456.8856985403553 252.00000000000006) rotate(0 -2.4020523138390217 19.728645412829906)"><path d="M-9.52 20.55 C-8.73 27.19, -6.77 31.78, -5.24 39.77 M-9.52 20.55 C-8.13 27.88, -6.24 34.67, -5.24 39.77" stroke="#1e1e1e" stroke-width="2" fill="none"></path></g><g transform="translate(456.8856985403553 252.00000000000006) rotate(0 -2.4020523138390217 19.728645412829906)"><path d="M3.83 22.29 C0.51 28.44, -1.64 32.5, -5.24 39.77 M3.83 22.29 C0.45 29.03, -2.42 35.19, -5.24 39.77" stroke="#1e1e1e" stroke-width="2" fill="none"></path></g></g><mask></mask><g stroke-linecap="round"><g transform="translate(574.3572553464305 253.00000000000006) rotate(0 -6.23046634380006 19.695220405106625)"><path d="M0.37 0.42 C-1.79 6.98, -10.38 32.81, -12.58 39.23 M-0.1 0.16 C-2.34 6.56, -10.67 31.83, -12.83 38.38" stroke="#1e1e1e" stroke-width="2" fill="none"></path></g><g transform="translate(574.3572553464305 253.00000000000006) rotate(0 -6.23046634380006 19.695220405106625)"><path d="M-13.45 17.85 C-12.47 26.21, -12.59 33.51, -12.83 38.38 M-13.45 17.85 C-12.97 23.57, -12.99 29.75, -12.83 38.38" stroke="#1e1e1e" stroke-width="2" fill="none"></path></g><g transform="translate(574.3572553464305 253.00000000000006) rotate(0 -6.23046634380006 19.695220405106625)"><path d="M-0.11 22.26 C-4.15 29.01, -9.28 34.64, -12.83 38.38 M-0.11 22.26 C-3.42 26.66, -7.25 31.59, -12.83 38.38" stroke="#1e1e1e" stroke-width="2" fill="none"></path></g></g><mask></mask><g stroke-linecap="round"><g transform="translate(672.7441458802188 251) rotate(0 -3.358649162909728 22.71731061345085)"><path d="M-0.13 -0.29 C-1.3 7.3, -6.42 37.41, -7.52 45.01 M0.8 0.76 C-0.15 8.48, -5.24 38.44, -6.52 45.72" stroke="#1e1e1e" stroke-width="2" fill="none"></path></g><g transform="translate(672.7441458802188 251) rotate(0 -3.358649162909728 22.71731061345085)"><path d="M-10.58 23.31 C-10.38 27.02, -9.01 33.01, -6.52 45.72 M-10.58 23.31 C-9.32 30.94, -7.84 39.87, -6.52 45.72" stroke="#1e1e1e" stroke-width="2" fill="none"></path></g><g transform="translate(672.7441458802188 251) rotate(0 -3.358649162909728 22.71731061345085)"><path d="M4.78 25.94 C1.87 29.1, 0.13 34.56, -6.52 45.72 M4.78 25.94 C0.47 32.66, -3.62 40.64, -6.52 45.72" stroke="#1e1e1e" stroke-width="2" fill="none"></path></g></g><mask></mask><g transform="translate(126 438) rotate(0 6.879997253417969 12.5)"><text x="0" y="17.52" font-family="Virgil, Segoe UI Emoji" font-size="20px" fill="#1e1e1e" text-anchor="start" style="white-space: pre;" direction="ltr" dominant-baseline="alphabetic">0</text></g><g transform="translate(252 438) rotate(0 2.7099990844726562 12.5)"><text x="0" y="17.52" font-family="Virgil, Segoe UI Emoji" font-size="20px" fill="#1e1e1e" text-anchor="start" style="white-space: pre;" direction="ltr" dominant-baseline="alphabetic">1</text></g><g transform="translate(394 439) rotate(0 7.1199951171875 12.5)"><text x="0" y="17.52" font-family="Virgil, Segoe UI Emoji" font-size="20px" fill="#1e1e1e" text-anchor="start" style="white-space: pre;" direction="ltr" dominant-baseline="alphabetic">2</text></g><g transform="translate(516 437) rotate(0 6.80999755859375 12.5)"><text x="0" y="17.52" font-family="Virgil, Segoe UI Emoji" font-size="20px" fill="#1e1e1e" text-anchor="start" style="white-space: pre;" direction="ltr" dominant-baseline="alphabetic">3</text></g><g transform="translate(607 435) rotate(0 6.399993896484375 12.5)"><text x="0" y="17.52" font-family="Virgil, Segoe UI Emoji" font-size="20px" fill="#1e1e1e" text-anchor="start" style="white-space: pre;" direction="ltr" dominant-baseline="alphabetic">4</text></g><g transform="translate(61 544) rotate(0 250.22982788085938 25)"><text x="0" y="17.52" font-family="Virgil, Segoe UI Emoji" font-size="20px" fill="#1e1e1e" text-anchor="start" style="white-space: pre;" direction="ltr" dominant-baseline="alphabetic">address = starting address+ ( index * type size )</text><text x="0" y="42.519999999999996" font-family="Virgil, Segoe UI Emoji" font-size="20px" fill="#1e1e1e" text-anchor="start" style="white-space: pre;" direction="ltr" dominant-baseline="alphabetic">        = 1000 + (0 * 4) </text></g><g transform="translate(69 656) rotate(0 250.22982788085938 25)"><text x="0" y="17.52" font-family="Virgil, Segoe UI Emoji" font-size="20px" fill="#1e1e1e" text-anchor="start" style="white-space: pre;" direction="ltr" dominant-baseline="alphabetic">address = starting address+ ( index * type size )</text><text x="0" y="42.519999999999996" font-family="Virgil, Segoe UI Emoji" font-size="20px" fill="#1e1e1e" text-anchor="start" style="white-space: pre;" direction="ltr" dominant-baseline="alphabetic">        = 1000 + (1 * 4) </text></g><g transform="translate(67 755) rotate(0 250.22982788085938 25)"><text x="0" y="17.52" font-family="Virgil, Segoe UI Emoji" font-size="20px" fill="#1e1e1e" text-anchor="start" style="white-space: pre;" direction="ltr" dominant-baseline="alphabetic">address = starting address+ ( index * type size )</text><text x="0" y="42.519999999999996" font-family="Virgil, Segoe UI Emoji" font-size="20px" fill="#1e1e1e" text-anchor="start" style="white-space: pre;" direction="ltr" dominant-baseline="alphabetic">        = 1000 + (2 * 4) </text></g><g transform="translate(74 851) rotate(0 250.22982788085938 25)"><text x="0" y="17.52" font-family="Virgil, Segoe UI Emoji" font-size="20px" fill="#1e1e1e" text-anchor="start" style="white-space: pre;" direction="ltr" dominant-baseline="alphabetic">address = starting address+ ( index * type size )</text><text x="0" y="42.519999999999996" font-family="Virgil, Segoe UI Emoji" font-size="20px" fill="#1e1e1e" text-anchor="start" style="white-space: pre;" direction="ltr" dominant-baseline="alphabetic">        = 1000 + (3 * 4) </text></g><g transform="translate(78 958) rotate(0 250.22982788085938 25)"><text x="0" y="17.52" font-family="Virgil, Segoe UI Emoji" font-size="20px" fill="#1e1e1e" text-anchor="start" style="white-space: pre;" direction="ltr" dominant-baseline="alphabetic">address = starting address+ ( index * type size )</text><text x="0" y="42.519999999999996" font-family="Virgil, Segoe UI Emoji" font-size="20px" fill="#1e1e1e" text-anchor="start" style="white-space: pre;" direction="ltr" dominant-baseline="alphabetic">        = 1000 + (4 * 4) </text></g><g transform="translate(148 601) rotate(0 34.519989013671875 12.5)"><text x="0" y="17.52" font-family="Virgil, Segoe UI Emoji" font-size="20px" fill="#1e1e1e" text-anchor="start" style="white-space: pre;" direction="ltr" dominant-baseline="alphabetic">= 1000</text></g><g transform="translate(156 712) rotate(0 34.03998565673828 12.5)"><text x="0" y="17.52" font-family="Virgil, Segoe UI Emoji" font-size="20px" fill="#1e1e1e" text-anchor="start" style="white-space: pre;" direction="ltr" dominant-baseline="alphabetic">= 1004</text></g><g transform="translate(154 812) rotate(0 35.28998565673828 12.5)"><text x="0" y="17.52" font-family="Virgil, Segoe UI Emoji" font-size="20px" fill="#1e1e1e" text-anchor="start" style="white-space: pre;" direction="ltr" dominant-baseline="alphabetic">= 1008</text></g><g transform="translate(161 910) rotate(0 30.589988708496094 12.5)"><text x="0" y="17.52" font-family="Virgil, Segoe UI Emoji" font-size="20px" fill="#1e1e1e" text-anchor="start" style="white-space: pre;" direction="ltr" dominant-baseline="alphabetic">= 1012</text></g><g transform="translate(165 1016) rotate(0 29.86998748779297 12.5)"><text x="0" y="17.52" font-family="Virgil, Segoe UI Emoji" font-size="20px" fill="#1e1e1e" text-anchor="start" style="white-space: pre;" direction="ltr" dominant-baseline="alphabetic">= 1016</text></g><g transform="translate(10 550) rotate(0 2.7099990844726562 12.5)"><text x="0" y="17.52" font-family="Virgil, Segoe UI Emoji" font-size="20px" fill="#1e1e1e" text-anchor="start" style="white-space: pre;" direction="ltr" dominant-baseline="alphabetic">1</text></g><g transform="translate(15 666) rotate(0 7.1199951171875 12.5)"><text x="0" y="17.52" font-family="Virgil, Segoe UI Emoji" font-size="20px" fill="#1e1e1e" text-anchor="start" style="white-space: pre;" direction="ltr" dominant-baseline="alphabetic">2</text></g><g transform="translate(13 767) rotate(0 6.80999755859375 12.5)"><text x="0" y="17.52" font-family="Virgil, Segoe UI Emoji" font-size="20px" fill="#1e1e1e" text-anchor="start" style="white-space: pre;" direction="ltr" dominant-baseline="alphabetic">3</text></g><g transform="translate(20 865) rotate(0 6.80999755859375 12.5)"><text x="0" y="17.52" font-family="Virgil, Segoe UI Emoji" font-size="20px" fill="#1e1e1e" text-anchor="start" style="white-space: pre;" direction="ltr" dominant-baseline="alphabetic">3</text></g><g transform="translate(24 971) rotate(0 6.80999755859375 12.5)"><text x="0" y="17.52" font-family="Virgil, Segoe UI Emoji" font-size="20px" fill="#1e1e1e" text-anchor="start" style="white-space: pre;" direction="ltr" dominant-baseline="alphabetic">3</text></g></svg>