<svg version="1.1" xmlns="http://www.w3.org/2000/svg" viewBox="0 0 1212.5714285714284 577.7142857142858" width="2425.142857142857" height="1155.4285714285716" filter="invert(93%) hue-rotate(180deg)">
  <!-- svg-source:excalidraw -->
  
  <defs>
    <style class="style-fonts">
      @font-face {
        font-family: "Virgil";
        src: url("https://excalidraw.com/Virgil.woff2");
      }
      @font-face {
        font-family: "Cascadia";
        src: url("https://excalidraw.com/Cascadia.woff2");
      }
      @font-face {
        font-family: "Assistant";
        src: url("https://excalidraw.com/Assistant-Regular.woff2");
      }
    </style>
    
  </defs>
  <rect x="0" y="0" width="1212.5714285714284" height="577.7142857142858" fill="#ffffff"></rect><g stroke-linecap="round" transform="translate(236.57142857142856 119.71428571428572) rotate(0 483 47.5)"><path d="M23.75 0 C237.17 2.02, 449.34 1.15, 942.25 0 M23.75 0 C323.08 -2.5, 621.99 -2.94, 942.25 0 M942.25 0 C959.77 1.93, 965.22 6.58, 966 23.75 M942.25 0 C958.74 0.62, 966.89 8.96, 966 23.75 M966 23.75 C965.13 39.54, 968 57.53, 966 71.25 M966 23.75 C966.56 40.54, 966.89 57.06, 966 71.25 M966 71.25 C967.85 86.38, 959.77 93.57, 942.25 95 M966 71.25 C967.26 87.24, 956.77 92.87, 942.25 95 M942.25 95 C699.92 95.99, 457.74 95.05, 23.75 95 M942.25 95 C753.28 96.6, 564.79 96.58, 23.75 95 M23.75 95 C9.36 93.75, -0.81 86.37, 0 71.25 M23.75 95 C8.79 96.89, 0.61 89.27, 0 71.25 M0 71.25 C-1.75 58.02, -1.24 41.78, 0 23.75 M0 71.25 C-1.23 53.22, 0.22 37.23, 0 23.75 M0 23.75 C1.01 6.89, 9.44 0.55, 23.75 0 M0 23.75 C-1.65 8.91, 7.79 1.3, 23.75 0" stroke="#1e1e1e" stroke-width="2" fill="none"></path></g><g stroke-linecap="round" transform="translate(858.5714285714286 135.71428571428572) rotate(0 132.5 32.5)"><path d="M16.25 0 C105.9 1.92, 194.54 -0.09, 248.75 0 M16.25 0 C96.31 -1.78, 175.46 -0.82, 248.75 0 M248.75 0 C259.66 1.62, 266.21 5.49, 265 16.25 M248.75 0 C258.46 -1.56, 265.79 5.31, 265 16.25 M265 16.25 C265.84 23.83, 265.08 33.01, 265 48.75 M265 16.25 C265.21 26.84, 264.37 37.05, 265 48.75 M265 48.75 C264.91 59.12, 260.76 65.48, 248.75 65 M265 48.75 C264.12 61.25, 260.51 62.76, 248.75 65 M248.75 65 C164.31 66.53, 80.35 64.81, 16.25 65 M248.75 65 C176.96 66.77, 105.14 67.28, 16.25 65 M16.25 65 C4.38 64.17, -1.59 60.84, 0 48.75 M16.25 65 C6.05 65.44, -0.68 57.68, 0 48.75 M0 48.75 C0.03 41.35, -1.07 33.11, 0 16.25 M0 48.75 C-0.92 41.08, 0.46 34.49, 0 16.25 M0 16.25 C1.59 6.94, 5.71 -1.3, 16.25 0 M0 16.25 C1.47 3.19, 5.06 -1.37, 16.25 0" stroke="#1e1e1e" stroke-width="2" fill="none"></path></g><g stroke-linecap="round"><g transform="translate(904.5714285714286 135.71428571428572) rotate(0 -1.2827543128374828 31.78995011264456)"><path d="M0.01 -0.47 C-0.4 10.09, -1.79 53.07, -2.1 63.87 M-1.44 -1.76 C-1.96 8.95, -2.49 54.68, -2.58 65.34" stroke="#1e1e1e" stroke-width="2" fill="none"></path></g></g><mask></mask><g stroke-linecap="round"><g transform="translate(947.5714285714286 135.71428571428572) rotate(0 -0.09109242760575853 32.692159872874626)"><path d="M0.73 -0.95 C0.72 10.24, 0.2 55.27, 0.02 66.33 M-0.35 1.17 C-0.52 12.05, -0.76 53.51, -0.91 64.38" stroke="#1e1e1e" stroke-width="2" fill="none"></path></g></g><mask></mask><g stroke-linecap="round"><g transform="translate(1001.5714285714286 137.71428571428572) rotate(0 -2.030419730767562 32.03237529286183)"><path d="M-0.19 0.18 C-0.8 10.93, -3.56 54.15, -3.87 64.84 M-1.75 -0.78 C-1.97 9.61, -1.52 52.06, -1.62 63.16" stroke="#1e1e1e" stroke-width="2" fill="none"></path></g></g><mask></mask><g stroke-linecap="round"><g transform="translate(1049.5714285714284 138.71428571428572) rotate(0 0.1995675257245466 31.38975210005418)"><path d="M-1.15 0.82 C-1.37 10.81, -1.03 50.81, -0.72 61.03 M0.45 0.2 C0.57 10.92, 1.64 52.56, 1.62 62.58" stroke="#1e1e1e" stroke-width="2" fill="none"></path></g></g><mask></mask><g stroke-linecap="round" transform="translate(271.57142857142856 134.71428571428572) rotate(0 132.5 32.5)"><path d="M16.25 0 C74.79 -1.27, 132.45 0.34, 248.75 0 M16.25 0 C62.01 -1.05, 109.93 -1.21, 248.75 0 M248.75 0 C260.64 -1, 263.62 4.18, 265 16.25 M248.75 0 C258.91 0.26, 264.07 6.79, 265 16.25 M265 16.25 C265.26 24.71, 264.27 36.65, 265 48.75 M265 16.25 C264.76 24.73, 265.85 32.92, 265 48.75 M265 48.75 C264.77 61.04, 260 66.88, 248.75 65 M265 48.75 C263.22 61.68, 259.9 63.84, 248.75 65 M248.75 65 C196.72 64.8, 146.73 64.75, 16.25 65 M248.75 65 C187.26 63.26, 126.46 63.42, 16.25 65 M16.25 65 C6.8 65.9, 1.36 59.36, 0 48.75 M16.25 65 C6.58 65.81, 1.37 57.84, 0 48.75 M0 48.75 C0.27 40.35, 1.12 33.93, 0 16.25 M0 48.75 C0.4 38.98, 1.19 29.81, 0 16.25 M0 16.25 C0.83 5.63, 6.92 -1.51, 16.25 0 M0 16.25 C0.23 6.72, 3.18 -0.92, 16.25 0" stroke="#1e1e1e" stroke-width="2" fill="none"></path></g><g stroke-linecap="round"><g transform="translate(317.57142857142856 135.71428571428572) rotate(0 -2.222512707766157 32.35908342039214)"><path d="M0.11 -1.01 C-0.65 9.69, -2.68 53.11, -3.4 64.13 M-1.29 1.07 C-2.34 12, -4.45 55.36, -4.55 65.73" stroke="#1e1e1e" stroke-width="2" fill="none"></path></g></g><mask></mask><g stroke-linecap="round"><g transform="translate(360.57142857142856 135.71428571428572) rotate(0 -0.17984907397067218 32.0302009856142)"><path d="M-1.01 -0.4 C-0.98 10.38, -0.22 53.64, 0.13 64.8 M0.65 -1.65 C0.55 9.22, -0.79 54.68, -0.75 65.71" stroke="#1e1e1e" stroke-width="2" fill="none"></path></g></g><mask></mask><g stroke-linecap="round"><g transform="translate(414.57142857142856 137.71428571428572) rotate(0 -1.3011005960963757 32.11312583228573)"><path d="M-0.4 0.13 C-1.12 11.14, -3.86 54.62, -4.2 65.08 M1.59 -0.85 C1.21 9.94, -1.36 52.78, -2.11 63.52" stroke="#1e1e1e" stroke-width="2" fill="none"></path></g></g><mask></mask><g stroke-linecap="round"><g transform="translate(462.57142857142856 138.71428571428572) rotate(0 -0.0765041108589628 30.1852514322847)"><path d="M0.13 -1.2 C0.48 9.13, 1.29 51.23, 1.08 61.57 M-1.26 0.79 C-0.89 10.8, 0.29 49.53, 0.69 59.74" stroke="#1e1e1e" stroke-width="2" fill="none"></path></g></g><mask></mask><g stroke-linecap="round" transform="translate(563.5714285714286 135.71428571428572) rotate(0 132.5 32.5)"><path d="M16.25 0 C83.52 -0.19, 147.84 -0.38, 248.75 0 M16.25 0 C79.67 0.96, 142.25 0.14, 248.75 0 M248.75 0 C259.78 -1.93, 264.2 5.02, 265 16.25 M248.75 0 C258.47 -0.78, 266.1 5.12, 265 16.25 M265 16.25 C265.08 28.43, 265.73 39.57, 265 48.75 M265 16.25 C264.79 22.69, 265.08 30.6, 265 48.75 M265 48.75 C263.91 59.63, 259.8 64.99, 248.75 65 M265 48.75 C264.14 59.23, 258.4 63.77, 248.75 65 M248.75 65 C200.23 64.44, 150.52 63.49, 16.25 65 M248.75 65 C166.59 65.45, 86.52 65.58, 16.25 65 M16.25 65 C6 63.59, 1.43 58.74, 0 48.75 M16.25 65 C4.9 62.77, -1.39 59.77, 0 48.75 M0 48.75 C0.55 41.65, 1.22 32.61, 0 16.25 M0 48.75 C-0.58 38.25, 0.49 28.07, 0 16.25 M0 16.25 C-1.5 3.86, 4.01 0.6, 16.25 0 M0 16.25 C-0.92 6.13, 3.44 -2.01, 16.25 0" stroke="#1e1e1e" stroke-width="2" fill="none"></path></g><g stroke-linecap="round"><g transform="translate(609.5714285714286 136.71428571428572) rotate(0 -1.5983835216611624 31.90336337544956)"><path d="M0.63 -0.6 C-0.14 10.01, -3.17 52.47, -3.83 63.26 M-0.49 1.7 C-0.96 12.48, -0.92 53.77, -1.55 64.41" stroke="#1e1e1e" stroke-width="2" fill="none"></path></g></g><mask></mask><g stroke-linecap="round"><g transform="translate(652.5714285714286 136.71428571428572) rotate(0 0.47223180917359286 33.085058099683366)"><path d="M-0.6 -0.83 C-0.66 10.01, -0.86 54.59, -0.74 65.65 M1.28 1.35 C1.65 12.3, 1.89 56.13, 1.58 67" stroke="#1e1e1e" stroke-width="2" fill="none"></path></g></g><mask></mask><g stroke-linecap="round"><g transform="translate(706.5714285714286 138.71428571428572) rotate(0 -1.7749726768769278 32.501091590458515)"><path d="M-0.83 -0.74 C-1.49 10.05, -2.91 53.23, -3.35 64.13 M0.94 1.49 C0.03 12.54, -3.58 55.53, -4.49 65.74" stroke="#1e1e1e" stroke-width="2" fill="none"></path></g></g><mask></mask><g stroke-linecap="round"><g transform="translate(754.5714285714286 139.71428571428572) rotate(0 0.16459383412808393 30.108337532319126)"><path d="M-0.74 -0.35 C-0.62 9.87, -0.11 50.25, 0.13 60.52 M1.07 -1.58 C1.1 8.88, -0.62 51.09, -0.74 61.8" stroke="#1e1e1e" stroke-width="2" fill="none"></path></g></g><mask></mask><g transform="translate(283.57142857142856 154.71428571428572) rotate(0 9.589996337890625 12.5)"><text x="0" y="17.52" font-family="Virgil, Segoe UI Emoji" font-size="20px" fill="#1e1e1e" text-anchor="start" style="white-space: pre;" direction="ltr" dominant-baseline="alphabetic">10</text></g><g transform="translate(328.57142857142856 163.71428571428572) rotate(0 13.999992370605469 12.5)"><text x="0" y="17.52" font-family="Virgil, Segoe UI Emoji" font-size="20px" fill="#1e1e1e" text-anchor="start" style="white-space: pre;" direction="ltr" dominant-baseline="alphabetic">20</text></g><g transform="translate(373.57142857142856 159.71428571428572) rotate(0 13.689994812011719 12.5)"><text x="0" y="17.52" font-family="Virgil, Segoe UI Emoji" font-size="20px" fill="#1e1e1e" text-anchor="start" style="white-space: pre;" direction="ltr" dominant-baseline="alphabetic">30</text></g><g transform="translate(424.57142857142856 156.71428571428572) rotate(0 13.279991149902344 12.5)"><text x="0" y="17.52" font-family="Virgil, Segoe UI Emoji" font-size="20px" fill="#1e1e1e" text-anchor="start" style="white-space: pre;" direction="ltr" dominant-baseline="alphabetic">40</text></g><g transform="translate(481.57142857142856 163.71428571428572) rotate(0 13.059989929199219 12.5)"><text x="0" y="17.52" font-family="Virgil, Segoe UI Emoji" font-size="20px" fill="#1e1e1e" text-anchor="start" style="white-space: pre;" direction="ltr" dominant-baseline="alphabetic">50</text></g><g transform="translate(582.5714285714286 167.71428571428572) rotate(0 2.7099990844726562 12.5)"><text x="0" y="17.52" font-family="Virgil, Segoe UI Emoji" font-size="20px" fill="#1e1e1e" text-anchor="start" style="white-space: pre;" direction="ltr" dominant-baseline="alphabetic">1</text></g><g transform="translate(622.5714285714286 161.71428571428572) rotate(0 7.1199951171875 12.5)"><text x="0" y="17.52" font-family="Virgil, Segoe UI Emoji" font-size="20px" fill="#1e1e1e" text-anchor="start" style="white-space: pre;" direction="ltr" dominant-baseline="alphabetic">2</text></g><g transform="translate(665.5714285714286 170.71428571428572) rotate(0 6.80999755859375 12.5)"><text x="0" y="17.52" font-family="Virgil, Segoe UI Emoji" font-size="20px" fill="#1e1e1e" text-anchor="start" style="white-space: pre;" direction="ltr" dominant-baseline="alphabetic">3</text></g><g transform="translate(729.5714285714286 166.71428571428572) rotate(0 6.399993896484375 12.5)"><text x="0" y="17.52" font-family="Virgil, Segoe UI Emoji" font-size="20px" fill="#1e1e1e" text-anchor="start" style="white-space: pre;" direction="ltr" dominant-baseline="alphabetic">4</text></g><g transform="translate(784.5714285714286 171.71428571428572) rotate(0 6.17999267578125 12.5)"><text x="0" y="17.52" font-family="Virgil, Segoe UI Emoji" font-size="20px" fill="#1e1e1e" text-anchor="start" style="white-space: pre;" direction="ltr" dominant-baseline="alphabetic">5</text></g><g transform="translate(872.5714285714286 162.71428571428572) rotate(0 5.4199981689453125 12.5)"><text x="0" y="17.52" font-family="Virgil, Segoe UI Emoji" font-size="20px" fill="#1e1e1e" text-anchor="start" style="white-space: pre;" direction="ltr" dominant-baseline="alphabetic">11</text></g><g transform="translate(921.5714285714286 167.71428571428572) rotate(0 9.829994201660156 12.5)"><text x="0" y="17.52" font-family="Virgil, Segoe UI Emoji" font-size="20px" fill="#1e1e1e" text-anchor="start" style="white-space: pre;" direction="ltr" dominant-baseline="alphabetic">12</text></g><g transform="translate(956.5714285714286 166.71428571428572) rotate(0 9.519996643066406 12.5)"><text x="0" y="17.52" font-family="Virgil, Segoe UI Emoji" font-size="20px" fill="#1e1e1e" text-anchor="start" style="white-space: pre;" direction="ltr" dominant-baseline="alphabetic">13</text></g><g transform="translate(1026.5714285714284 167.71428571428572) rotate(0 9.109992980957031 12.5)"><text x="0" y="17.52" font-family="Virgil, Segoe UI Emoji" font-size="20px" fill="#1e1e1e" text-anchor="start" style="white-space: pre;" direction="ltr" dominant-baseline="alphabetic">14</text></g><g transform="translate(1063.5714285714284 161.71428571428572) rotate(0 8.889991760253906 12.5)"><text x="0" y="17.52" font-family="Virgil, Segoe UI Emoji" font-size="20px" fill="#1e1e1e" text-anchor="start" style="white-space: pre;" direction="ltr" dominant-baseline="alphabetic">15</text></g><g transform="translate(260.1428571428571 10) rotate(0 38.729957580566406 12.5)"><text x="0" y="17.52" font-family="Virgil, Segoe UI Emoji" font-size="20px" fill="#1e1e1e" text-anchor="start" style="white-space: pre;" direction="ltr" dominant-baseline="alphabetic">Numbers</text></g><g transform="translate(10 292) rotate(0 228.6798095703125 12.5)"><text x="0" y="17.52" font-family="Virgil, Segoe UI Emoji" font-size="20px" fill="#1e1e1e" text-anchor="start" style="white-space: pre;" direction="ltr" dominant-baseline="alphabetic">to Access 30 from first array numbers[0][2]</text></g><g stroke-linecap="round" transform="translate(606.7140315481832 335.7142857142857) rotate(0 262.3690987124463 115.00429184549358)"><path d="M32 0 C191.66 -1.28, 350.85 -2.07, 492.74 0 M32 0 C125.06 0.57, 218.56 0.91, 492.74 0 M492.74 0 C513.03 -0.34, 522.99 10.25, 524.74 32 M492.74 0 C512.3 -0.64, 523.84 10.96, 524.74 32 M524.74 32 C524.48 70.23, 526.84 111.8, 524.74 198.01 M524.74 32 C523.51 86.05, 523.49 140.66, 524.74 198.01 M524.74 198.01 C523.97 218.78, 515.42 231.7, 492.74 230.01 M524.74 198.01 C525.96 218.53, 512.32 229.76, 492.74 230.01 M492.74 230.01 C312.19 227.44, 131.06 227.79, 32 230.01 M492.74 230.01 C384.72 230.42, 276.98 230.7, 32 230.01 M32 230.01 C9.02 228.21, 1.46 221.3, 0 198.01 M32 230.01 C10.39 229.11, 1.12 219.18, 0 198.01 M0 198.01 C0.16 145, -0.54 89.58, 0 32 M0 198.01 C-1.3 153.82, -0.33 111.63, 0 32 M0 32 C-0.41 10.01, 11.73 1.76, 32 0 M0 32 C1.48 8.99, 11.58 -0.35, 32 0" stroke="#1e1e1e" stroke-width="2" fill="none"></path></g><g stroke-linecap="round"><g transform="translate(775.9844178142777 337.70570202329856) rotate(0 -0.006386630181225428 113.82015592257227)"><path d="M-0.84 -0.52 C-1.01 37.22, -0.22 189.21, 0.01 227.11 M0.92 1.81 C0.5 39.63, -0.79 190.55, -0.94 228.17" stroke="#1e1e1e" stroke-width="2" fill="none"></path></g></g><mask></mask><g stroke-linecap="round"><g transform="translate(943.2633877713591 337.70570202329856) rotate(0 0.7321476693848012 113.06742857343656)"><path d="M1.09 -0.18 C1.2 37.92, 1.4 189.78, 1.11 227.46 M0.21 -1.33 C0.21 36.51, 1.07 187.57, 0.74 225.57" stroke="#1e1e1e" stroke-width="2" fill="none"></path></g></g><mask></mask><g stroke-linecap="round"><g transform="translate(607.7097397026897 391.4739423666462) rotate(0 262.8284248163548 0.3484613333631046)"><path d="M0.03 -0.74 C87.7 -0.77, 439.48 -0.87, 527.07 -0.74 M-1.41 1.49 C86.04 1.65, 438.09 0.43, 526.3 0.41" stroke="#1e1e1e" stroke-width="2" fill="none"></path></g></g><mask></mask><g stroke-linecap="round"><g transform="translate(607.7097397026897 436.28080931943595) rotate(0 261.88566840050044 0.3651961034357214)"><path d="M0.79 -0.93 C88.22 -1.04, 437.01 -0.29, 524.03 0.02 M-0.26 1.2 C87.1 1.24, 435.62 1.92, 523.23 1.57" stroke="#1e1e1e" stroke-width="2" fill="none"></path></g></g><mask></mask><g stroke-linecap="round"><g transform="translate(607.7097397026897 475.11342734518706) rotate(0 263.68565202719503 0.22673004979270672)"><path d="M0.34 0.3 C87.96 0.16, 438.11 -0.11, 525.99 -0.32 M-0.95 -0.59 C87.04 -0.59, 440.28 0.98, 528.32 1.05" stroke="#1e1e1e" stroke-width="2" fill="none"></path></g></g><mask></mask><g stroke-linecap="round"><g transform="translate(609.7011560117024 519.9202942979766) rotate(0 263.91543664492633 -0.40325532487594273)"><path d="M1.11 1.02 C89.06 1, 440.16 0.55, 527.6 0.2 M0.23 0.5 C88.11 0.07, 439.12 -1.68, 527.1 -1.82" stroke="#1e1e1e" stroke-width="2" fill="none"></path></g></g><mask></mask><g transform="translate(676.4136023636339 366.5812385039853) rotate(0 9.548837555324553 12.446351931330469)"><text x="0" y="17.44480686695279" font-family="Virgil, Segoe UI Emoji" font-size="19.914163090128756px" fill="#1e1e1e" text-anchor="start" style="white-space: pre;" direction="ltr" dominant-baseline="alphabetic">10</text></g><g transform="translate(698.3191817627754 407.4052728387492) rotate(0 13.939906566439788 12.446351931330469)"><text x="0" y="17.44480686695279" font-family="Virgil, Segoe UI Emoji" font-size="19.914163090128756px" fill="#1e1e1e" text-anchor="start" style="white-space: pre;" direction="ltr" dominant-baseline="alphabetic">20</text></g><g transform="translate(694.2719714623463 445.2464745554875) rotate(0 13.63123946947087 12.446351931330469)"><text x="0" y="17.44480686695279" font-family="Virgil, Segoe UI Emoji" font-size="19.914163090128756px" fill="#1e1e1e" text-anchor="start" style="white-space: pre;" direction="ltr" dominant-baseline="alphabetic">30</text></g><g transform="translate(686.3706839086982 486.0662170447578) rotate(0 13.222995479731082 12.446351931330469)"><text x="0" y="17.44480686695279" font-family="Virgil, Segoe UI Emoji" font-size="19.914163090128756px" fill="#1e1e1e" text-anchor="start" style="white-space: pre;" direction="ltr" dominant-baseline="alphabetic">40</text></g><g transform="translate(704.293430689814 542.8215818516248) rotate(0 13.003938470275614 12.446351931330469)"><text x="0" y="17.44480686695279" font-family="Virgil, Segoe UI Emoji" font-size="19.914163090128756px" fill="#1e1e1e" text-anchor="start" style="white-space: pre;" direction="ltr" dominant-baseline="alphabetic">50</text></g><g transform="translate(843.6925723207154 362.59840588595955) rotate(0 2.698368187114397 12.446351931330469)"><text x="0" y="17.444806866952796" font-family="Virgil, Segoe UI Emoji" font-size="19.91416309012876px" fill="#1e1e1e" text-anchor="start" style="white-space: pre;" direction="ltr" dominant-baseline="alphabetic">1</text></g><g transform="translate(843.6925723207154 403.42244022072344) rotate(0 7.089437198229632 12.446351931330469)"><text x="0" y="17.44480686695279" font-family="Virgil, Segoe UI Emoji" font-size="19.914163090128756px" fill="#1e1e1e" text-anchor="start" style="white-space: pre;" direction="ltr" dominant-baseline="alphabetic">2</text></g><g transform="translate(841.7011560117026 449.22501532801965) rotate(0 6.780770101260714 12.446351931330469)"><text x="0" y="17.44480686695279" font-family="Virgil, Segoe UI Emoji" font-size="19.914163090128756px" fill="#1e1e1e" text-anchor="start" style="white-space: pre;" direction="ltr" dominant-baseline="alphabetic">3</text></g><g transform="translate(843.6925723207154 489.05334150827713) rotate(0 6.372526111520926 12.446351931330469)"><text x="0" y="17.44480686695279" font-family="Virgil, Segoe UI Emoji" font-size="19.914163090128756px" fill="#1e1e1e" text-anchor="start" style="white-space: pre;" direction="ltr" dominant-baseline="alphabetic">4</text></g><g transform="translate(851.658237556767 533.8602084610668) rotate(0 6.153469102065458 12.446351931330469)"><text x="0" y="17.44480686695279" font-family="Virgil, Segoe UI Emoji" font-size="19.914163090128756px" fill="#1e1e1e" text-anchor="start" style="white-space: pre;" direction="ltr" dominant-baseline="alphabetic">5</text></g><g transform="translate(1017.941499359342 359.6112814224402) rotate(0 5.396736374228794 12.446351931330469)"><text x="0" y="17.444806866952796" font-family="Virgil, Segoe UI Emoji" font-size="19.91416309012876px" fill="#1e1e1e" text-anchor="start" style="white-space: pre;" direction="ltr" dominant-baseline="alphabetic">11</text></g><g transform="translate(1022.9200401318741 413.37952176578784) rotate(0 9.787805385343972 12.446351931330469)"><text x="0" y="17.44480686695279" font-family="Virgil, Segoe UI Emoji" font-size="19.914163090128756px" fill="#1e1e1e" text-anchor="start" style="white-space: pre;" direction="ltr" dominant-baseline="alphabetic">12</text></g><g transform="translate(1016.9457912048355 450.2207234825261) rotate(0 9.479138288375111 12.446351931330469)"><text x="0" y="17.44480686695279" font-family="Virgil, Segoe UI Emoji" font-size="19.914163090128756px" fill="#1e1e1e" text-anchor="start" style="white-space: pre;" direction="ltr" dominant-baseline="alphabetic">13</text></g><g transform="translate(1020.9286238228614 490.0490496627836) rotate(0 9.07089429863538 12.446351931330469)"><text x="0" y="17.44480686695279" font-family="Virgil, Segoe UI Emoji" font-size="19.914163090128756px" fill="#1e1e1e" text-anchor="start" style="white-space: pre;" direction="ltr" dominant-baseline="alphabetic">14</text></g><g transform="translate(1028.8942890589128 536.8473329245862) rotate(0 8.851837289179912 12.446351931330469)"><text x="0" y="17.44480686695279" font-family="Virgil, Segoe UI Emoji" font-size="19.914163090128756px" fill="#1e1e1e" text-anchor="start" style="white-space: pre;" direction="ltr" dominant-baseline="alphabetic">15</text></g><g transform="translate(487.57142857142856 380.7142857142857) rotate(87.69093891397456 37.79997253417969 12.5)"><text x="0" y="17.52" font-family="Virgil, Segoe UI Emoji" font-size="20px" fill="#1e1e1e" text-anchor="start" style="white-space: pre;" direction="ltr" dominant-baseline="alphabetic">Rows -&gt;</text></g><g transform="translate(865.5714285714286 297.7142857142857) rotate(0 2.7099990844726562 12.5)"><text x="0" y="17.52" font-family="Virgil, Segoe UI Emoji" font-size="20px" fill="#1e1e1e" text-anchor="start" style="white-space: pre;" direction="ltr" dominant-baseline="alphabetic">1</text></g><g transform="translate(1019.5714285714286 308.7142857142857) rotate(0 7.1199951171875 12.5)"><text x="0" y="17.52" font-family="Virgil, Segoe UI Emoji" font-size="20px" fill="#1e1e1e" text-anchor="start" style="white-space: pre;" direction="ltr" dominant-baseline="alphabetic">2</text></g><g transform="translate(571.5714285714286 391.7142857142857) rotate(0 2.7099990844726562 12.5)"><text x="0" y="17.52" font-family="Virgil, Segoe UI Emoji" font-size="20px" fill="#1e1e1e" text-anchor="start" style="white-space: pre;" direction="ltr" dominant-baseline="alphabetic">1</text></g><g transform="translate(575.5714285714286 446.7142857142857) rotate(0 7.1199951171875 12.5)"><text x="0" y="17.52" font-family="Virgil, Segoe UI Emoji" font-size="20px" fill="#1e1e1e" text-anchor="start" style="white-space: pre;" direction="ltr" dominant-baseline="alphabetic">2</text></g><g transform="translate(575.5714285714286 487.7142857142857) rotate(0 6.80999755859375 12.5)"><text x="0" y="17.52" font-family="Virgil, Segoe UI Emoji" font-size="20px" fill="#1e1e1e" text-anchor="start" style="white-space: pre;" direction="ltr" dominant-baseline="alphabetic">3</text></g><g transform="translate(574.5714285714286 534.7142857142858) rotate(0 6.399993896484375 12.5)"><text x="0" y="17.52" font-family="Virgil, Segoe UI Emoji" font-size="20px" fill="#1e1e1e" text-anchor="start" style="white-space: pre;" direction="ltr" dominant-baseline="alphabetic">4</text></g><g transform="translate(603.5714285714286 263.7142857142857) rotate(0 49.25995635986328 12.5)"><text x="0" y="17.52" font-family="Virgil, Segoe UI Emoji" font-size="20px" fill="#1e1e1e" text-anchor="start" style="white-space: pre;" direction="ltr" dominant-baseline="alphabetic">columns -&gt;</text></g><g transform="translate(576.5714285714286 357.7142857142857) rotate(0 6.879997253417969 12.5)"><text x="0" y="17.52" font-family="Virgil, Segoe UI Emoji" font-size="20px" fill="#1e1e1e" text-anchor="start" style="white-space: pre;" direction="ltr" dominant-baseline="alphabetic">0</text></g><g transform="translate(690.5714285714286 309.7142857142857) rotate(0 6.879997253417969 12.5)"><text x="0" y="17.52" font-family="Virgil, Segoe UI Emoji" font-size="20px" fill="#1e1e1e" text-anchor="start" style="white-space: pre;" direction="ltr" dominant-baseline="alphabetic">0</text></g><g transform="translate(19 360) rotate(0 227.12982177734375 12.5)"><text x="0" y="17.52" font-family="Virgil, Segoe UI Emoji" font-size="20px" fill="#1e1e1e" text-anchor="start" style="white-space: pre;" direction="ltr" dominant-baseline="alphabetic">to access 3 from second array numbers[1][2]</text></g><g stroke-linecap="round"><g transform="translate(298.68253968254 49.00000000000006) rotate(0 0.4622199078450535 34.75990593722089)"><path d="M0.95 0.17 C1.03 11.95, 0.65 58.73, 0.68 70.3 M-0.01 -0.78 C-0.04 10.65, -0.07 56.42, 0.09 68.34" stroke="#1e1e1e" stroke-width="2" fill="none"></path></g><g transform="translate(298.68253968254 49.00000000000006) rotate(0 0.4622199078450535 34.75990593722089)"><path d="M-8.59 44.9 C-5.64 53.36, -2.68 61.53, 0.09 68.34 M-8.59 44.9 C-7.19 50.91, -3.51 57.26, 0.09 68.34" stroke="#1e1e1e" stroke-width="2" fill="none"></path></g><g transform="translate(298.68253968254 49.00000000000006) rotate(0 0.4622199078450535 34.75990593722089)"><path d="M8.51 44.8 C6.07 53.43, 3.63 61.63, 0.09 68.34 M8.51 44.8 C5.31 50.94, 4.41 57.32, 0.09 68.34" stroke="#1e1e1e" stroke-width="2" fill="none"></path></g></g><mask></mask></svg>